<svg width="25" height="24" viewBox="0 0 25 24" fill="none" xmlns="http://www.w3.org/2000/svg">
<path fill-rule="evenodd" clip-rule="evenodd" d="M12.2002 2.25C6.81542 2.25 2.4502 6.61522 2.4502 12C2.4502 17.3848 6.81542 21.75 12.2002 21.75C17.585 21.75 21.9502 17.3848 21.9502 12C21.9502 6.61522 17.585 2.25 12.2002 2.25ZM12.9502 6C12.9502 5.58579 12.6144 5.25 12.2002 5.25C11.786 5.25 11.4502 5.58579 11.4502 6V12C11.4502 12.4142 11.786 12.75 12.2002 12.75H16.7002C17.1144 12.75 17.4502 12.4142 17.4502 12C17.4502 11.5858 17.1144 11.25 16.7002 11.25H12.9502V6Z" fill="#999999"/>
</svg>
